<svg width="33" height="30" viewBox="0 0 33 30" fill="none" xmlns="http://www.w3.org/2000/svg">
<path d="M16.5 29.999C17.0095 29.9984 17.507 29.8468 17.9278 29.5639C24.1618 25.3959 26.8611 22.5381 28.35 20.7514C31.5229 16.9428 33.042 13.0326 32.9991 8.79824C32.9491 3.9459 28.9965 -0.000976562 24.188 -0.000976562C20.6914 -0.000976562 18.2697 1.93887 16.8593 3.55449C16.8147 3.60516 16.7595 3.64578 16.6975 3.67362C16.6355 3.70146 16.5681 3.71587 16.5 3.71587C16.4319 3.71587 16.3645 3.70146 16.3025 3.67362C16.2405 3.64578 16.1853 3.60516 16.1407 3.55449C14.7303 1.9373 12.3086 -0.000976562 8.81204 -0.000976562C4.0035 -0.000976562 0.0508499 3.9459 0.00087738 8.79902C-0.0419579 13.0342 1.47866 16.9443 4.64998 20.7521C6.13887 22.5389 8.83822 25.3967 15.0722 29.5646C15.4931 29.8473 15.9906 29.9986 16.5 29.999Z" fill="#FF5B5B"/>
<mask id="mask0_11_3620" style="mask-type:alpha" maskUnits="userSpaceOnUse" x="0" y="-1" width="33" height="31">
<path d="M16.5 29.999C17.0095 29.9984 17.507 29.8468 17.9278 29.5639C24.1618 25.3959 26.8611 22.5381 28.35 20.7514C31.5229 16.9428 33.042 13.0326 32.9991 8.79824C32.9491 3.9459 28.9965 -0.000976562 24.188 -0.000976562C20.6914 -0.000976562 18.2697 1.93887 16.8593 3.55449C16.8147 3.60516 16.7595 3.64578 16.6975 3.67362C16.6355 3.70146 16.5681 3.71587 16.5 3.71587C16.4319 3.71587 16.3645 3.70146 16.3025 3.67362C16.2405 3.64578 16.1853 3.60516 16.1407 3.55449C14.7303 1.9373 12.3086 -0.000976562 8.81204 -0.000976562C4.0035 -0.000976562 0.0508499 3.9459 0.00087738 8.79902C-0.0419579 13.0342 1.47866 16.9443 4.64998 20.7521C6.13887 22.5389 8.83822 25.3967 15.0722 29.5646C15.4931 29.8473 15.9906 29.9986 16.5 29.999Z" fill="#FF5B5B"/>
</mask>
<g mask="url(#mask0_11_3620)">
<rect x="-10" y="-9.00098" width="26.5" height="56" fill="#ED2E2E"/>
</g>
</svg>
