<svg width="39" height="41" viewBox="0 0 39 41" fill="none" xmlns="http://www.w3.org/2000/svg">
<path d="M18.545 3.07574C18.8362 2.13776 20.1638 2.13776 20.455 3.07574L23.6596 13.3971C23.7895 13.8155 24.1766 14.1006 24.6146 14.1006H35.0782C36.0359 14.1006 36.4458 15.317 35.6834 15.8967L27.1412 22.3916C26.8065 22.6461 26.6668 23.0827 26.7914 23.4842L30.0356 33.9332C30.3242 34.8626 29.25 35.6148 28.4753 35.0258L20.1053 28.6617C19.7476 28.3897 19.2524 28.3897 18.8947 28.6617L10.5247 35.0258C9.75001 35.6148 8.67583 34.8626 8.96438 33.9332L12.2086 23.4842C12.3332 23.0827 12.1935 22.6461 11.8588 22.3916L3.31656 15.8967C2.55421 15.317 2.96413 14.1006 3.92181 14.1006H14.3854C14.8234 14.1006 15.2105 13.8155 15.3404 13.3971L18.545 3.07574Z" fill="#524FF5"/>
<mask id="mask0_11_3643" style="mask-type:alpha" maskUnits="userSpaceOnUse" x="2" y="2" width="35" height="34">
<path d="M18.545 3.07501C18.8362 2.13703 20.1638 2.13703 20.455 3.07501L23.6596 13.3964C23.7895 13.8148 24.1766 14.0999 24.6146 14.0999H35.0782C36.0359 14.0999 36.4458 15.3163 35.6834 15.8959L27.1412 22.3909C26.8065 22.6454 26.6668 23.082 26.7914 23.4835L30.0356 33.9325C30.3242 34.8619 29.25 35.614 28.4753 35.025L20.1053 28.661C19.7476 28.389 19.2524 28.389 18.8947 28.661L10.5247 35.025C9.75001 35.614 8.67583 34.8619 8.96438 33.9325L12.2086 23.4835C12.3332 23.082 12.1935 22.6454 11.8588 22.3909L3.31656 15.8959C2.55421 15.3163 2.96413 14.0999 3.92181 14.0999H14.3854C14.8234 14.0999 15.2105 13.8148 15.3404 13.3964L18.545 3.07501Z" fill="#524FF5"/>
</mask>
<g mask="url(#mask0_11_3643)">
<rect x="10.9609" y="-6.34985" width="22.3072" height="41.7209" transform="rotate(34.5456 10.9609 -6.34985)" fill="#2421D9"/>
</g>
</svg>
