<svg width="99" height="99" viewBox="0 0 99 99" fill="none" xmlns="http://www.w3.org/2000/svg">
<path d="M42.8903 23.9054L27.7906 6.48255C26.0485 4.47249 22.8587 4.48548 20.836 6.51094L8.41863 18.9447C4.72305 22.6452 3.66524 28.1411 5.80068 32.5465C18.6627 59.081 39.8344 80.2809 66.3337 93.16C70.7334 95.2981 76.2222 94.2389 79.9175 90.5386L92.4529 77.9862C94.4838 75.9531 94.4874 72.7443 92.4619 71.0053L74.9621 55.9855C73.1307 54.4134 70.2893 54.6196 68.4539 56.4577L62.3665 62.5531C61.6894 63.2311 60.6717 63.3932 59.8977 62.9468C49.9297 57.1996 41.7133 48.9724 35.9735 38.9912C35.5278 38.2161 35.6899 37.197 36.3667 36.5192L42.4355 30.4423C44.2789 28.5965 44.478 25.7372 42.8903 23.9054Z" stroke="black" stroke-width="8.92706" stroke-linecap="round" stroke-linejoin="round"/>
</svg>
