<svg width="80" height="91" viewBox="0 0 80 91" fill="none" xmlns="http://www.w3.org/2000/svg">
<path d="M39.87 45.4935C51.052 45.4935 60.1167 36.4287 60.1167 25.2468C60.1167 14.0648 51.052 5 39.87 5C28.688 5 19.6232 14.0648 19.6232 25.2468C19.6232 36.4287 28.688 45.4935 39.87 45.4935Z" stroke="black" stroke-width="8.0987"/>
<path d="M60.1167 53.5922H61.5409C67.6672 53.5922 72.835 58.1542 73.595 64.2335L75.1763 76.8837C75.7804 81.7174 72.0113 85.987 67.1399 85.987H12.5999C7.72854 85.987 3.95953 81.7174 4.56373 76.8837L6.145 64.2335C6.9049 58.1542 12.0727 53.5922 18.1993 53.5922H19.6232" stroke="black" stroke-width="8.0987" stroke-linecap="round" stroke-linejoin="round"/>
</svg>
